<svg width="18" height="22" viewBox="0 0 18 22" fill="none" xmlns="http://www.w3.org/2000/svg">
<path d="M16.8401 5.9436H13.9138V5.30586C13.9138 2.641 11.7133 0.5 9.02117 0.5C6.32905 0.5 4.12852 2.641 4.12852 5.30586V5.9436H1.20229C0.804328 5.9436 0.5 6.2397 0.5 6.6269V19.7462C0.5 20.7256 1.31934 21.5 2.30256 21.5H15.693C16.6996 21.5 17.4955 20.7028 17.4955 19.7462V6.60412C17.5423 6.2397 17.2146 5.9436 16.8401 5.9436ZM5.53311 5.28308C5.53311 3.39262 7.10157 1.84382 9.02117 1.84382C10.9408 1.84382 12.5092 3.39262 12.5092 5.28308V5.92082H5.53311V5.28308ZM15.7164 20.1334H2.32597C2.09187 20.1334 1.90459 19.9512 1.90459 19.7234V7.28742H4.12852V11.0456C4.12852 11.4328 4.43285 11.7288 4.83082 11.7288C5.22878 11.7288 5.53311 11.4328 5.53311 11.0456V7.28742H12.5092V11.0456C12.5092 11.4328 12.8136 11.7288 13.2115 11.7288C13.6095 11.7288 13.9138 11.4328 13.9138 11.0456V7.28742H16.1378V19.7234C16.1378 19.9512 15.9505 20.1334 15.7164 20.1334Z" fill="#282C3F"/>
</svg>
