<svg width="16" height="20" viewBox="0 0 16 20" fill="none" xmlns="http://www.w3.org/2000/svg">
<path d="M15.3789 5.18438H12.6248V4.57701C12.6248 2.03905 10.5537 0 8.01993 0C5.48616 0 3.41508 2.03905 3.41508 4.57701V5.18438H0.660983C0.286426 5.18438 0 5.46638 0 5.83514V18.3297C0 19.2625 0.771147 20 1.69652 20H14.2993C15.2467 20 15.9958 19.2408 15.9958 18.3297V5.81345C16.0399 5.46638 15.7314 5.18438 15.3789 5.18438ZM4.73705 4.55531C4.73705 2.75488 6.21324 1.27983 8.01993 1.27983C9.82662 1.27983 11.3028 2.75488 11.3028 4.55531V5.16269H4.73705V4.55531ZM14.3213 18.6985H1.71856C1.49823 18.6985 1.32197 18.5249 1.32197 18.308V6.46421H3.41508V10.0434C3.41508 10.4121 3.7015 10.6941 4.07606 10.6941C4.45062 10.6941 4.73705 10.4121 4.73705 10.0434V6.46421H11.3028V10.0434C11.3028 10.4121 11.5892 10.6941 11.9638 10.6941C12.3384 10.6941 12.6248 10.4121 12.6248 10.0434V6.46421H14.7179V18.308C14.7179 18.5249 14.5416 18.6985 14.3213 18.6985Z" fill="#6D6E70"/>
</svg>
