<svg width="24" height="16" viewBox="0 0 24 16" fill="none" xmlns="http://www.w3.org/2000/svg">
<path fill-rule="evenodd" clip-rule="evenodd" d="M0.923077 0C0.678262 0 0.443473 0.0936507 0.270363 0.26035C0.0972524 0.427049 0 0.653141 0 0.888889C0 1.12464 0.0972524 1.35073 0.270363 1.51743C0.443473 1.68413 0.678262 1.77778 0.923077 1.77778H23.0769C23.3217 1.77778 23.5565 1.68413 23.7296 1.51743C23.9027 1.35073 24 1.12464 24 0.888889C24 0.653141 23.9027 0.427049 23.7296 0.26035C23.5565 0.0936507 23.3217 0 23.0769 0H0.923077ZM0 8C0 7.76425 0.0972524 7.53816 0.270363 7.37146C0.443473 7.20476 0.678262 7.11111 0.923077 7.11111H23.0769C23.3217 7.11111 23.5565 7.20476 23.7296 7.37146C23.9027 7.53816 24 7.76425 24 8C24 8.23575 23.9027 8.46184 23.7296 8.62854C23.5565 8.79524 23.3217 8.88889 23.0769 8.88889H0.923077C0.678262 8.88889 0.443473 8.79524 0.270363 8.62854C0.0972524 8.46184 0 8.23575 0 8ZM0 15.1111C0 14.8754 0.0972524 14.6493 0.270363 14.4826C0.443473 14.3159 0.678262 14.2222 0.923077 14.2222H23.0769C23.3217 14.2222 23.5565 14.3159 23.7296 14.4826C23.9027 14.6493 24 14.8754 24 15.1111C24 15.3469 23.9027 15.573 23.7296 15.7397C23.5565 15.9064 23.3217 16 23.0769 16H0.923077C0.678262 16 0.443473 15.9064 0.270363 15.7397C0.0972524 15.573 0 15.3469 0 15.1111Z" fill="#6D6E70"/>
</svg>
