<svg width="16" height="16" viewBox="0 0 16 16" fill="none" xmlns="http://www.w3.org/2000/svg">
<path d="M11.1955 9.06666C11.3232 8.72558 11.3879 8.36418 11.3866 8C11.3866 7.19138 11.0654 6.41589 10.4936 5.84411C9.92187 5.27233 9.14637 4.95111 8.33776 4.95111C7.97806 4.95153 7.62134 5.01625 7.28442 5.14222L7.99998 5.88C8.10875 5.8626 8.21871 5.85368 8.32887 5.85333C8.90062 5.85214 9.44961 6.07722 9.85598 6.47942C10.2623 6.88162 10.4931 7.42827 10.4978 8C10.4974 8.11015 10.4885 8.22011 10.4711 8.32889L11.1955 9.06666Z" fill="#676B7A"/>
<path d="M15.2399 7.79112C13.7421 5.02224 11.1154 3.34668 8.20877 3.34668C7.41737 3.34854 6.63129 3.47605 5.87988 3.72446L6.59544 4.44446C7.12248 4.30825 7.66442 4.23808 8.20877 4.23557C10.711 4.23557 12.9865 5.63112 14.3421 7.98223C13.8448 8.8545 13.1856 9.62383 12.3999 10.2489L13.031 10.88C13.9404 10.1464 14.6956 9.2401 15.2532 8.21335L15.3688 8.00001L15.2399 7.79112Z" fill="#676B7A"/>
<path d="M2.16453 2.5689L4.14675 4.55112C2.89383 5.35784 1.86982 6.47369 1.17342 7.79112L1.05786 8.00001L1.17342 8.21334C2.67119 10.9822 5.29786 12.6578 8.20453 12.6578C9.33904 12.6576 10.4588 12.4008 11.4801 11.9067L13.7023 14.1289L14.4801 13.4622L2.92453 1.90668L2.16453 2.5689ZM6.49786 6.90223L9.45342 9.85779C9.11947 10.0645 8.73504 10.1752 8.3423 10.1778C8.05694 10.1778 7.77439 10.1214 7.51092 10.0118C7.24744 9.90216 7.00824 9.74153 6.80708 9.53913C6.60592 9.33673 6.44676 9.09655 6.33878 8.8324C6.23079 8.56826 6.1761 8.28537 6.17786 8.00001C6.18287 7.61182 6.29349 7.23231 6.49786 6.90223ZM5.85342 6.25779C5.43761 6.84419 5.24272 7.55881 5.30325 8.27512C5.36377 8.99142 5.67582 9.66321 6.18413 10.1715C6.69244 10.6798 7.36422 10.9919 8.08053 11.0524C8.79684 11.1129 9.51146 10.918 10.0979 10.5022L10.809 11.2133C9.98576 11.5652 9.09979 11.7467 8.20453 11.7467C5.7023 11.7467 3.42675 10.3511 2.07119 8.00001C2.72173 6.84811 3.65863 5.88366 4.79119 5.20001L5.85342 6.25779Z" fill="#676B7A"/>
</svg>
