<svg width="30" height="30" viewBox="0 0 30 30" fill="none" xmlns="http://www.w3.org/2000/svg">
<path fill-rule="evenodd" clip-rule="evenodd" d="M8.97661 1.07251C10.4996 1.0024 10.9852 0.986816 14.8648 0.986816C18.7444 0.986816 19.23 1.0037 20.7517 1.07251C22.2734 1.14132 23.3121 1.38412 24.221 1.73599C25.1727 2.09564 26.0361 2.65784 26.7503 3.38494C27.4774 4.09776 28.0383 4.95989 28.3966 5.91291C28.7498 6.82178 28.9913 7.86049 29.0614 9.37961C29.1315 10.9052 29.1471 11.3908 29.1471 15.2691C29.1471 19.1487 29.1302 19.6343 29.0614 21.1573C28.9926 22.6764 28.7498 23.7151 28.3966 24.624C28.0383 25.5771 27.4764 26.4407 26.7503 27.1546C26.0361 27.8817 25.1727 28.4426 24.221 28.8009C23.3121 29.1541 22.2734 29.3956 20.7543 29.4657C19.23 29.5358 18.7444 29.5514 14.8648 29.5514C10.9852 29.5514 10.4996 29.5345 8.97661 29.4657C7.45749 29.3969 6.41878 29.1541 5.50991 28.8009C4.55679 28.4425 3.69323 27.8807 2.97935 27.1546C2.25274 26.4413 1.69045 25.5782 1.33169 24.6253C0.979827 23.7164 0.738326 22.6777 0.668213 21.1586C0.5981 19.633 0.58252 19.1474 0.58252 15.2691C0.58252 11.3895 0.599399 10.9039 0.668213 9.3822C0.737028 7.86049 0.979827 6.82178 1.33169 5.91291C1.69098 4.95999 2.2537 4.09687 2.98065 3.38364C3.69351 2.6572 4.55621 2.09492 5.50861 1.73599C6.41748 1.38412 7.45619 1.14262 8.97531 1.07251H8.97661ZM20.6361 3.64332C19.13 3.57451 18.6782 3.56022 14.8648 3.56022C11.0514 3.56022 10.5996 3.57451 9.09346 3.64332C7.70029 3.70694 6.94463 3.93935 6.44085 4.13541C5.77478 4.39509 5.29827 4.70281 4.79839 5.20269C4.32454 5.66368 3.95987 6.22489 3.73111 6.84515C3.53506 7.34893 3.30265 8.10459 3.23902 9.49776C3.17021 11.0039 3.15593 11.4557 3.15593 15.2691C3.15593 19.0825 3.17021 19.5343 3.23902 21.0404C3.30265 22.4336 3.53506 23.1893 3.73111 23.6931C3.95963 24.3124 4.32448 24.8746 4.79839 25.3355C5.25932 25.8094 5.82152 26.1743 6.44085 26.4028C6.94463 26.5989 7.70029 26.8313 9.09346 26.8949C10.5996 26.9637 11.0501 26.978 14.8648 26.978C18.6795 26.978 19.13 26.9637 20.6361 26.8949C22.0293 26.8313 22.785 26.5989 23.2888 26.4028C23.9548 26.1431 24.4313 25.8354 24.9312 25.3355C25.4051 24.8746 25.77 24.3124 25.9985 23.6931C26.1946 23.1893 26.427 22.4336 26.4906 21.0404C26.5594 19.5343 26.5737 19.0825 26.5737 15.2691C26.5737 11.4557 26.5594 11.0039 26.4906 9.49776C26.427 8.10459 26.1946 7.34893 25.9985 6.84515C25.7388 6.17908 25.4311 5.70257 24.9312 5.20269C24.4702 4.72887 23.909 4.3642 23.2888 4.13541C22.785 3.93935 22.0293 3.70694 20.6361 3.64332ZM13.0406 19.6719C14.0594 20.096 15.1938 20.1533 16.2501 19.8339C17.3064 19.5145 18.2191 18.8383 18.8322 17.9207C19.4453 17.0032 19.7209 15.9013 19.6118 14.8031C19.5027 13.705 19.0158 12.6788 18.2341 11.8998C17.7359 11.4018 17.1334 11.0205 16.47 10.7834C15.8067 10.5462 15.0991 10.459 14.398 10.5282C13.697 10.5973 13.02 10.821 12.4158 11.1832C11.8116 11.5454 11.2952 12.0371 10.9038 12.6228C10.5124 13.2085 10.2558 13.8737 10.1523 14.5705C10.0489 15.2673 10.1012 15.9784 10.3056 16.6526C10.5099 17.3267 10.8612 17.9472 11.3341 18.4693C11.807 18.9914 12.3898 19.4021 13.0406 19.6719ZM9.67384 10.0781C10.3555 9.39645 11.1648 8.85571 12.0555 8.48678C12.9461 8.11786 13.9008 7.92797 14.8648 7.92797C15.8289 7.92797 16.7835 8.11786 17.6741 8.48678C18.5648 8.85571 19.3741 9.39645 20.0558 10.0781C20.7375 10.7598 21.2782 11.5691 21.6471 12.4598C22.0161 13.3504 22.2059 14.3051 22.2059 15.2691C22.2059 16.2332 22.0161 17.1878 21.6471 18.0784C21.2782 18.9691 20.7375 19.7784 20.0558 20.4601C18.679 21.8368 16.8118 22.6102 14.8648 22.6102C12.9178 22.6102 11.0506 21.8368 9.67384 20.4601C8.29712 19.0833 7.52368 17.2161 7.52368 15.2691C7.52368 13.3221 8.29712 11.4549 9.67384 10.0781ZM23.8341 9.02125C24.003 8.8619 24.1382 8.67027 24.2318 8.45772C24.3253 8.24516 24.3753 8.016 24.3786 7.7838C24.382 7.55159 24.3388 7.32107 24.2515 7.10588C24.1642 6.89069 24.0346 6.6952 23.8704 6.53099C23.7062 6.36678 23.5107 6.23719 23.2955 6.14989C23.0803 6.06258 22.8498 6.01934 22.6176 6.02273C22.3854 6.02611 22.1562 6.07605 21.9437 6.16959C21.7311 6.26313 21.5395 6.39837 21.3801 6.5673C21.0702 6.89583 20.9005 7.3322 20.9071 7.7838C20.9137 8.23539 21.096 8.66663 21.4154 8.98599C21.7347 9.30535 22.166 9.48767 22.6176 9.49425C23.0692 9.50084 23.5056 9.33116 23.8341 9.02125Z" fill="white"/>
</svg>
