<svg width="90" height="112" viewBox="0 0 90 112" fill="none" xmlns="http://www.w3.org/2000/svg">
<path d="M45 61.1667C53.5604 61.1667 60.5 54.2271 60.5 45.6667C60.5 37.1062 53.5604 30.1667 45 30.1667C36.4396 30.1667 29.5 37.1062 29.5 45.6667C29.5 54.2271 36.4396 61.1667 45 61.1667Z" stroke="#282C3F" stroke-width="7" stroke-linecap="round" stroke-linejoin="round"/>
<path d="M45 4.33331C34.0377 4.33331 23.5244 8.68806 15.7729 16.4396C8.02138 24.1911 3.66663 34.7044 3.66663 45.6666C3.66663 55.442 5.74363 61.8383 11.4166 68.9167L45 107.667L78.5833 68.9167C84.2563 61.8383 86.3333 55.442 86.3333 45.6666C86.3333 34.7044 81.9785 24.1911 74.227 16.4396C66.4755 8.68806 55.9622 4.33331 45 4.33331V4.33331Z" stroke="#282C3F" stroke-width="7" stroke-linecap="round" stroke-linejoin="round"/>
</svg>
