<svg width="18" height="18" viewBox="0 0 18 18" fill="none" xmlns="http://www.w3.org/2000/svg">
<path fill-rule="evenodd" clip-rule="evenodd" d="M12.6041 11.4159L17.0875 15.8993C17.2451 16.057 17.3335 16.2708 17.3335 16.4937C17.3334 16.7167 17.2447 16.9304 17.0871 17.088C16.9294 17.2456 16.7155 17.3341 16.4926 17.334C16.2697 17.3339 16.0559 17.2453 15.8983 17.0876L11.415 12.6043C10.0747 13.6423 8.38937 14.1308 6.70174 13.9704C5.01412 13.81 3.451 13.0126 2.33037 11.7406C1.20975 10.4686 0.615795 8.81746 0.669346 7.12307C0.722897 5.42868 1.41993 3.81833 2.61864 2.61962C3.81735 1.4209 5.4277 0.723874 7.12209 0.670322C8.81648 0.616771 10.4676 1.21072 11.7396 2.33135C13.0117 3.45197 13.809 5.01509 13.9694 6.70272C14.1299 8.39034 13.6414 10.0757 12.6033 11.4159H12.6041ZM7.3333 12.3334C8.65939 12.3334 9.93116 11.8067 10.8688 10.869C11.8065 9.9313 12.3333 8.65953 12.3333 7.33345C12.3333 6.00736 11.8065 4.73559 10.8688 3.79791C9.93116 2.86023 8.65939 2.33345 7.3333 2.33345C6.00722 2.33345 4.73545 2.86023 3.79777 3.79791C2.86009 4.73559 2.3333 6.00736 2.3333 7.33345C2.3333 8.65953 2.86009 9.9313 3.79777 10.869C4.73545 11.8067 6.00722 12.3334 7.3333 12.3334Z" fill="#676B7A"/>
</svg>
