<svg width="14" height="14" viewBox="0 0 14 14" fill="none" xmlns="http://www.w3.org/2000/svg">
<path fill-rule="evenodd" clip-rule="evenodd" d="M10.1796 8.93266L13.7663 12.5193C13.8924 12.6455 13.9632 12.8165 13.9631 12.9949C13.963 13.1732 13.8921 13.3443 13.766 13.4703C13.6398 13.5964 13.4688 13.6672 13.2904 13.6671C13.1121 13.6671 12.941 13.5961 12.815 13.47L9.22831 9.88332C8.15612 10.7138 6.80783 11.1046 5.45773 10.9762C4.10763 10.8479 2.85713 10.21 1.96063 9.1924C1.06413 8.17479 0.588974 6.85387 0.631815 5.49835C0.674656 4.14284 1.23228 2.85456 2.19125 1.8956C3.15022 0.936626 4.4385 0.379001 5.79401 0.33616C7.14952 0.293319 8.47044 0.76848 9.48805 1.66498C10.5057 2.56148 11.1435 3.81198 11.2719 5.16208C11.4002 6.51218 11.0094 7.86046 10.179 8.93266H10.1796ZM5.96298 9.66666C7.02385 9.66666 8.04126 9.24523 8.79141 8.49508C9.54155 7.74494 9.96298 6.72752 9.96298 5.66666C9.96298 4.60579 9.54155 3.58838 8.79141 2.83823C8.04126 2.08809 7.02385 1.66666 5.96298 1.66666C4.90211 1.66666 3.8847 2.08809 3.13455 2.83823C2.38441 3.58838 1.96298 4.60579 1.96298 5.66666C1.96298 6.72752 2.38441 7.74494 3.13455 8.49508C3.8847 9.24523 4.90211 9.66666 5.96298 9.66666Z" fill="#282C3F"/>
</svg>
