<svg width="23" height="23" viewBox="0 0 23 23" fill="none" xmlns="http://www.w3.org/2000/svg">
<path d="M15.9351 4.30697C15.935 3.50642 16.2164 2.73133 16.7301 2.11729C17.2437 1.50326 17.9569 1.08939 18.7449 0.948101C19.5329 0.806808 20.3455 0.947086 21.0405 1.34439C21.7355 1.7417 22.2686 2.37074 22.5467 3.12145C22.8248 3.87216 22.83 4.69674 22.5615 5.45092C22.293 6.2051 21.7679 6.84086 21.078 7.24696C20.3881 7.65306 19.5773 7.80365 18.7876 7.67238C17.9979 7.54111 17.2795 7.13634 16.7581 6.52888L7.58931 10.7871C7.8001 11.4551 7.8001 12.1717 7.58931 12.8397L16.7581 17.0979C17.3092 16.4569 18.0788 16.0434 18.9175 15.9374C19.7562 15.8314 20.6044 16.0405 21.2977 16.5243C21.991 17.008 22.48 17.732 22.67 18.5557C22.8599 19.3795 22.7373 20.2444 22.3259 20.983C21.9145 21.7215 21.2436 22.281 20.4432 22.553C19.6427 22.825 18.7698 22.7902 17.9936 22.4554C17.2174 22.1205 16.5931 21.5094 16.2418 20.7404C15.8905 19.9715 15.8371 19.0995 16.0921 18.2935L6.92329 14.0353C6.4694 14.5643 5.8644 14.9415 5.18968 15.1164C4.51496 15.2912 3.80288 15.2552 3.14924 15.0132C2.4956 14.7712 1.93175 14.3348 1.53354 13.7627C1.13534 13.1907 0.921875 12.5104 0.921875 11.8134C0.921875 11.1164 1.13534 10.4361 1.53354 9.86407C1.93175 9.29202 2.4956 8.85565 3.14924 8.61365C3.80288 8.37165 4.51496 8.33564 5.18968 8.51046C5.8644 8.68528 6.4694 9.06254 6.92329 9.5915L16.0921 5.33331C15.9877 5.00121 15.9348 4.65509 15.9351 4.30697Z" fill="#6D6E70"/>
</svg>
