<svg width="22" height="22" viewBox="0 0 22 22" fill="none" xmlns="http://www.w3.org/2000/svg">
<path d="M10.9219 0.5C8.84518 0.5 6.81511 1.11581 5.08839 2.26957C3.36168 3.42332 2.01586 5.0632 1.22114 6.98182C0.426424 8.90045 0.218489 11.0116 0.623634 13.0484C1.02878 15.0852 2.02881 16.9562 3.49726 18.4246C4.96571 19.8931 6.83663 20.8931 8.87343 21.2982C10.9102 21.7034 13.0214 21.4955 14.9401 20.7007C16.8587 19.906 18.4986 18.5602 19.6523 16.8335C20.8061 15.1068 21.4219 13.0767 21.4219 11C21.4187 8.2162 20.3114 5.54733 18.343 3.57889C16.3745 1.61044 13.7057 0.503176 10.9219 0.5ZM16.9159 17.6945C16.9009 16.7108 16.5001 15.7722 15.7998 15.0812C15.0995 14.3901 14.1557 14.0019 13.1719 14H8.67188C7.68802 14.0019 6.74426 14.3901 6.04395 15.0812C5.34364 15.7722 4.94283 16.7108 4.92788 17.6945C3.5678 16.4801 2.60868 14.8812 2.17751 13.1095C1.74633 11.3378 1.86345 9.47701 2.51336 7.77339C3.16326 6.06978 4.31529 4.60375 5.81691 3.56943C7.31852 2.5351 9.09889 1.98127 10.9223 1.98127C12.7456 1.98127 14.526 2.5351 16.0276 3.56943C17.5292 4.60375 18.6812 6.06978 19.3312 7.77339C19.9811 9.47701 20.0982 11.3378 19.667 13.1095C19.2358 14.8812 18.2767 16.4801 16.9166 17.6945H16.9159Z" fill="#282C3F"/>
</svg>
