<svg width="16" height="18" viewBox="0 0 16 18" fill="none" xmlns="http://www.w3.org/2000/svg">
<path d="M13.3763 17.6255H5.19433C4.25476 17.6255 3.48975 16.8191 3.48975 15.8271V5.03711C3.48975 4.04515 4.25476 3.23877 5.19433 3.23877H13.3763C14.3159 3.23877 15.0809 4.04515 15.0809 5.03711V15.8271C15.0809 16.8191 14.3159 17.6255 13.3763 17.6255ZM5.19433 3.95811C4.63045 3.95811 4.17158 4.44222 4.17158 5.03711V15.8271C4.17158 16.422 4.63045 16.9062 5.19433 16.9062H13.3763C13.9402 16.9062 14.3991 16.422 14.3991 15.8271V5.03711C14.3991 4.44222 13.9402 3.95811 13.3763 3.95811H5.19433Z" fill="#282C3F"/>
<path d="M2.46747 15.4678H1.78564C0.846071 15.4678 0.0810547 14.6614 0.0810547 13.6693V2.15928C0.0810547 1.16726 0.846071 0.36084 1.78564 0.36084H9.96764C10.9072 0.36084 11.6722 1.16726 11.6722 2.15928C11.6722 2.35783 11.5195 2.51897 11.3313 2.51897C11.1431 2.51897 10.9904 2.35783 10.9904 2.15928C10.9904 1.56436 10.5315 1.08022 9.96764 1.08022H1.78564C1.22176 1.08022 0.762888 1.56436 0.762888 2.15928V13.6693C0.762888 14.2643 1.22176 14.7484 1.78564 14.7484H2.46747C2.65566 14.7484 2.80839 14.9095 2.80839 15.1081C2.80839 15.3066 2.65566 15.4678 2.46747 15.4678Z" fill="#282C3F"/>
<path d="M12.0134 12.5903H6.55869C6.3705 12.5903 6.21777 12.4291 6.21777 12.2303C6.21777 12.0316 6.3705 11.8704 6.55869 11.8704H12.0134C12.2015 11.8704 12.3543 12.0316 12.3543 12.2303C12.3543 12.4291 12.2015 12.5903 12.0134 12.5903Z" fill="#282C3F"/>
<path d="M12.0134 15.4678H6.55869C6.3705 15.4678 6.21777 15.3066 6.21777 15.1079C6.21777 14.9093 6.3705 14.748 6.55869 14.748H12.0134C12.2015 14.748 12.3543 14.9093 12.3543 15.1079C12.3543 15.3066 12.2015 15.4678 12.0134 15.4678Z" fill="#282C3F"/>
<path d="M12.0134 9.71216H6.55869C6.3705 9.71216 6.21777 9.55116 6.21777 9.35278C6.21777 9.15441 6.3705 8.99341 6.55869 8.99341H12.0134C12.2015 8.99341 12.3543 9.15441 12.3543 9.35278C12.3543 9.55116 12.2015 9.71216 12.0134 9.71216Z" fill="#282C3F"/>
<path d="M12.0134 6.83545H6.55869C6.3705 6.83545 6.21777 6.67418 6.21777 6.47546C6.21777 6.27675 6.3705 6.11548 6.55869 6.11548H12.0134C12.2015 6.11548 12.3543 6.27675 12.3543 6.47546C12.3543 6.67418 12.2015 6.83545 12.0134 6.83545Z" fill="#282C3F"/>
</svg>
