<svg width="44" height="44" viewBox="0 0 44 44" fill="none" xmlns="http://www.w3.org/2000/svg">
<path d="M38.5972 0.305908C36.1194 0.305908 33.9632 2.0233 33.3687 4.3816H21.1889C20.2931 4.3816 19.4508 4.7305 18.8173 5.36393L1.38323 22.798C0.340357 23.8409 0.340357 25.5378 1.38323 26.5806L17.7143 42.9117C18.2357 43.4331 18.9207 43.6938 19.6056 43.6938C20.2905 43.6938 20.9754 43.4331 21.4969 42.9117L38.931 25.4776C39.5644 24.844 39.9133 24.0018 39.9133 23.1059V12.0558C40.4371 11.7865 40.9325 11.4735 41.3847 11.1131C43.0884 9.75566 43.989 7.88296 43.989 5.69771C43.989 2.72466 41.5702 0.305908 38.5972 0.305908ZM38.6396 23.106C38.6396 23.6617 38.4233 24.184 38.0303 24.577L20.5962 42.0111C20.0499 42.5574 19.1611 42.5574 18.6148 42.0111L2.28378 25.6801C1.73756 25.1338 1.73756 24.245 2.28378 23.6987L19.7179 6.26457C20.1109 5.87161 20.6332 5.65526 21.1889 5.65526H37.2386C38.0111 5.65526 38.6396 6.28376 38.6396 7.05628V11.2401C37.5287 11.6976 36.305 11.9611 35.1292 12.0556C34.9151 10.4112 33.5062 9.13658 31.8044 9.13658C29.955 9.13658 28.4504 10.6412 28.4504 12.4905C28.4504 14.3399 29.955 15.8445 31.8044 15.8445C33.3596 15.8445 34.6706 14.7804 35.0485 13.3421C36.24 13.263 37.4783 13.0261 38.6396 12.6078V23.106ZM31.6621 13.1113C32.2783 13.2525 32.966 13.3379 33.6919 13.3635C33.3613 14.0756 32.6397 14.5709 31.8043 14.5709C30.6572 14.5709 29.724 13.6377 29.724 12.4906C29.724 11.3436 30.6572 10.4103 31.8043 10.4103C32.8151 10.4103 33.6593 11.135 33.8459 12.092C33.1597 12.0754 32.5138 11.9998 31.9466 11.8698C31.6039 11.7911 31.2621 12.0054 31.1836 12.3483C31.1051 12.6911 31.3193 13.0327 31.6621 13.1113ZM40.591 10.117C40.3767 10.2877 40.1499 10.4461 39.9133 10.5932V7.05628C39.9133 5.58147 38.7134 4.3816 37.2386 4.3816H34.6944C35.2499 2.74224 36.8148 1.57956 38.5972 1.57956C40.868 1.57956 42.7153 3.42696 42.7153 5.69771C42.7153 7.50698 42.0006 8.99384 40.591 10.117Z" fill="white"/>
</svg>
