<svg width="50" height="50" viewBox="0 0 50 50" fill="none" xmlns="http://www.w3.org/2000/svg">
<path d="M13.262 25L23.3232 33.3843L36.7382 16.6156M25.0001 48.4761C21.9171 48.4761 18.8644 47.8689 16.0161 46.6891C13.1679 45.5093 10.5799 43.7801 8.39993 41.6001C6.21997 39.4201 4.49073 36.8322 3.31094 33.9839C2.13115 31.1356 1.52393 28.0829 1.52393 25C1.52393 21.917 2.13115 18.8643 3.31094 16.016C4.49073 13.1678 6.21997 10.5798 8.39993 8.39981C10.5799 6.21985 13.1679 4.49061 16.0161 3.31082C18.8644 2.13103 21.9171 1.5238 25.0001 1.5238C31.2263 1.5238 37.1976 3.99718 41.6002 8.39981C46.0029 12.8024 48.4762 18.7737 48.4762 25C48.4762 31.2262 46.0029 37.1975 41.6002 41.6001C37.1976 46.0027 31.2263 48.4761 25.0001 48.4761Z" stroke="#0066B2" stroke-width="3"/>
</svg>
