<svg width="25" height="24" viewBox="0 0 25 24" fill="none" xmlns="http://www.w3.org/2000/svg">
<path opacity="0.7" d="M21.143 16.2835L15.8849 16.2835L15.8849 20.5597C15.9732 21.3808 15.7236 22.2026 15.1911 22.8441C14.6586 23.4857 13.8868 23.8945 13.0454 23.9808C12.8242 24.0064 12.6006 24.0064 12.3794 23.9808L11.0035 23.9808C10.7106 23.9729 10.4286 23.8704 10.2018 23.6893C9.97499 23.5082 9.8162 23.2588 9.75033 22.9801L9.75033 22.8775L8.87397 17.4552L5.77165 12.8625L0.110351 12.8625L0.11035 0.888889L16.7612 0.888888C23.2813 0.888887 24.6485 4.60924 24.6485 7.73092L24.6485 12.8624C24.7368 13.6836 24.4872 14.5053 23.9547 15.1468C23.4223 15.7884 22.6504 16.1972 21.8091 16.2835C21.5878 16.3091 21.3643 16.3091 21.143 16.2835ZM5.36852 2.5994L1.86307 2.5994L1.86307 11.1519L5.36852 11.1519L5.36852 2.5994ZM22.8958 7.73092C22.8958 4.23293 20.9502 2.5994 16.7612 2.5994L7.12124 2.5994L7.12124 11.7506L10.6267 16.8223L11.2664 21.415L11.3891 22.2702L12.3794 22.2702C13.6414 22.2702 14.1321 21.7913 14.1321 20.5597L14.1321 14.573L21.143 14.573C22.405 14.573 22.8958 14.094 22.8958 12.8624L22.8958 7.73092Z" fill="#282C3F"/>
</svg>
