<svg width="136" height="136" viewBox="0 0 136 136" fill="none" xmlns="http://www.w3.org/2000/svg">
<g clip-path="url(#clip0)">
<path d="M4.25 8.5C3.12283 8.5 2.04183 8.94777 1.2448 9.7448C0.447767 10.5418 0 11.6228 0 12.75C0 13.8772 0.447767 14.9582 1.2448 15.7552C2.04183 16.5522 3.12283 17 4.25 17H13.685L17.0935 30.6595L29.8265 98.532C30.0088 99.5059 30.5257 100.386 31.2877 101.019C32.0498 101.652 33.0092 101.999 34 102H42.5C37.9913 102 33.6673 103.791 30.4792 106.979C27.2911 110.167 25.5 114.491 25.5 119C25.5 123.509 27.2911 127.833 30.4792 131.021C33.6673 134.209 37.9913 136 42.5 136C47.0087 136 51.3327 134.209 54.5208 131.021C57.7089 127.833 59.5 123.509 59.5 119C59.5 114.491 57.7089 110.167 54.5208 106.979C51.3327 103.791 47.0087 102 42.5 102H102C97.4913 102 93.1673 103.791 89.9792 106.979C86.7911 110.167 85 114.491 85 119C85 123.509 86.7911 127.833 89.9792 131.021C93.1673 134.209 97.4913 136 102 136C106.509 136 110.833 134.209 114.021 131.021C117.209 127.833 119 123.509 119 119C119 114.491 117.209 110.167 114.021 106.979C110.833 103.791 106.509 102 102 102H110.5C111.491 101.999 112.45 101.652 113.212 101.019C113.974 100.386 114.491 99.5059 114.674 98.532L127.424 30.532C127.538 29.9186 127.517 29.2875 127.36 28.6834C127.203 28.0793 126.916 27.5172 126.517 27.0368C126.119 26.5565 125.62 26.1698 125.055 25.9042C124.49 25.6386 123.874 25.5006 123.25 25.5H24.565L21.1225 11.7215C20.8931 10.8017 20.3627 9.98494 19.6157 9.40121C18.8687 8.81748 17.948 8.50026 17 8.5H4.25ZM37.5275 93.5L26.367 34H118.133L106.973 93.5H37.5275ZM51 119C51 121.254 50.1045 123.416 48.5104 125.01C46.9163 126.604 44.7543 127.5 42.5 127.5C40.2457 127.5 38.0837 126.604 36.4896 125.01C34.8955 123.416 34 121.254 34 119C34 116.746 34.8955 114.584 36.4896 112.99C38.0837 111.396 40.2457 110.5 42.5 110.5C44.7543 110.5 46.9163 111.396 48.5104 112.99C50.1045 114.584 51 116.746 51 119ZM110.5 119C110.5 121.254 109.604 123.416 108.01 125.01C106.416 126.604 104.254 127.5 102 127.5C99.7457 127.5 97.5837 126.604 95.9896 125.01C94.3955 123.416 93.5 121.254 93.5 119C93.5 116.746 94.3955 114.584 95.9896 112.99C97.5837 111.396 99.7457 110.5 102 110.5C104.254 110.5 106.416 111.396 108.01 112.99C109.604 114.584 110.5 116.746 110.5 119Z" fill="#676B7A"/>
<path d="M55.9737 63.5227C51.7915 57.9464 53.1856 49.5819 60.156 46.7937C67.1263 44.0056 71.3086 49.5819 72.7026 52.37C74.0967 49.5819 79.673 44.0056 86.6434 46.7937C93.6138 49.5819 93.6138 57.9464 89.4316 63.5227C85.2493 69.099 72.7026 80.2516 72.7026 80.2516C72.7026 80.2516 60.156 69.099 55.9737 63.5227Z" stroke="#676B7A" stroke-width="5" stroke-linecap="round" stroke-linejoin="round"/>
</g>
<defs>
<clipPath id="clip0">
<rect width="136" height="136" fill="white"/>
</clipPath>
</defs>
</svg>
