<svg width="16" height="16" viewBox="0 0 16 16" fill="none" xmlns="http://www.w3.org/2000/svg">
<path d="M9.77777 14.6667V8.66672L14.8756 3.55561C14.9513 3.47984 15.0112 3.38971 15.0516 3.29049C15.0921 3.19127 15.1123 3.08497 15.1111 2.97783V2.22228C15.1111 2.1044 15.0643 1.99136 14.9809 1.90801C14.8976 1.82466 14.7845 1.77783 14.6667 1.77783H1.33333C1.21546 1.77783 1.10241 1.82466 1.01906 1.90801C0.935711 1.99136 0.888885 2.1044 0.888885 2.22228V2.9645C0.888969 3.06947 0.909825 3.17339 0.950253 3.27026C0.990681 3.36714 1.04988 3.45505 1.12444 3.52894L6.22222 8.70228V13.2356L9.77777 14.6667Z" fill="#6D6E70"/>
</svg>
