<svg width="26" height="24" viewBox="0 0 26 24" fill="none" xmlns="http://www.w3.org/2000/svg">
<path opacity="0.7" d="M21.5874 8.6052L16.3292 8.6052V4.32893C16.4175 3.50782 16.1679 2.68611 15.6355 2.04455C15.103 1.40299 14.3312 0.994134 13.4898 0.907916C13.2686 0.882257 13.045 0.882257 12.8237 0.907916L11.4479 0.907916C11.1549 0.915748 10.8729 1.01825 10.6461 1.19935C10.4193 1.38045 10.2605 1.6299 10.1947 1.90856V2.01119L9.3183 7.43351L6.21598 12.0262H0.554688L0.554688 23.9998L17.2056 23.9998C23.7257 23.9998 25.0928 20.2794 25.0928 17.1577L25.0928 12.0262C25.1811 11.2051 24.9316 10.3834 24.3991 9.74184C23.8666 9.10028 23.0948 8.69142 22.2534 8.6052C22.0322 8.57955 21.8086 8.57955 21.5874 8.6052ZM5.81286 22.2893H2.30741L2.30741 13.7367H5.81286L5.81286 22.2893ZM23.3401 17.1577C23.3401 20.6557 21.3946 22.2893 17.2056 22.2893L7.56558 22.2893L7.56558 13.1381L11.071 8.06639L11.7108 3.47368L11.8335 2.61842L12.8237 2.61842C14.0857 2.61842 14.5765 3.09737 14.5765 4.32893L14.5765 10.3157H21.5874C22.8493 10.3157 23.3401 10.7947 23.3401 12.0262L23.3401 17.1577Z" fill="#282C3F"/>
</svg>
