<svg width="126" height="126" viewBox="0 0 126 126" fill="none" xmlns="http://www.w3.org/2000/svg">
<g opacity="0.7">
<path d="M63 119.98C65.2048 119.929 67.3206 119.1 68.9731 117.64C70.6256 116.18 71.7085 114.182 72.03 112H53.62C53.9507 114.241 55.0841 116.286 56.8096 117.754C58.535 119.222 60.7349 120.013 63 119.98Z" fill="#282C3F"/>
<path d="M113.785 97.4057C110.41 94.3969 107.455 90.9476 105 87.1507C102.32 81.9096 100.713 76.186 100.275 70.3157V53.0257C100.261 50.9255 100.073 48.8301 99.7149 46.7607C96.9601 46.21 94.3126 45.2172 91.8749 43.8207C92.8041 46.8126 93.2761 49.9277 93.2749 53.0607V70.3507C93.7039 77.5117 95.6738 84.4958 99.0499 90.8257C101.466 94.6547 104.334 98.1799 107.59 101.326H17.9549C21.2114 98.1799 24.0785 94.6547 26.4949 90.8257C29.8711 84.4958 31.8409 77.5117 32.2699 70.3507V53.0257C32.2515 48.9751 33.0323 44.9606 34.5675 41.2122C36.1027 37.4638 38.3622 34.055 41.2167 31.181C44.0711 28.307 47.4645 26.0243 51.2024 24.4636C54.9403 22.9029 58.9493 22.0948 62.9999 22.0857C68.9281 22.0904 74.7232 23.8435 79.6599 27.1257C79.1157 25.1271 78.8102 23.0711 78.7499 21.0007V18.7957C75.0954 16.9979 71.1694 15.8154 67.1299 15.2957V10.8857C67.1299 9.64644 66.6377 8.45797 65.7614 7.58171C64.8851 6.70545 63.6967 6.21317 62.4574 6.21317C61.2182 6.21317 60.0297 6.70545 59.1535 7.58171C58.2772 8.45797 57.7849 9.64644 57.7849 10.8857V15.4707C48.7399 16.7466 40.4619 21.2518 34.4792 28.1544C28.4965 35.0571 25.213 43.8911 25.2349 53.0257V70.3157C24.7966 76.186 23.1901 81.9096 20.5099 87.1507C18.098 90.9389 15.1906 94.3877 11.8649 97.4057C11.4916 97.7336 11.1924 98.1374 10.9872 98.59C10.782 99.0426 10.6756 99.5337 10.6749 100.031V104.791C10.6749 105.719 11.0437 106.609 11.7001 107.266C12.3564 107.922 13.2467 108.291 14.1749 108.291H111.475C112.403 108.291 113.293 107.922 113.95 107.266C114.606 106.609 114.975 105.719 114.975 104.791V100.031C114.974 99.5337 114.868 99.0426 114.663 98.59C114.457 98.1374 114.158 97.7336 113.785 97.4057Z" fill="#282C3F"/>
<path d="M105 38.5C114.665 38.5 122.5 30.665 122.5 21C122.5 11.335 114.665 3.5 105 3.5C95.335 3.5 87.5 11.335 87.5 21C87.5 30.665 95.335 38.5 105 38.5Z" fill="#282C3F"/>
</g>
</svg>
