<svg width="107" height="89" viewBox="0 0 107 89" fill="none" xmlns="http://www.w3.org/2000/svg">
<path opacity="0.7" d="M24.5317 89C16.3545 89 10.178 86.0763 6.00244 80.229C2.00081 74.2097 0 65.8686 0 55.2058C0 42.9952 3.04471 32.2464 9.13414 22.9594C15.2236 13.6725 24.5317 6.01933 37.0585 0L45.4098 16.5101C37.5805 20.4657 31.665 25.0232 27.6634 30.1826C23.8358 35.1701 21.922 41.5334 21.922 49.2725C22.4439 49.1005 23.3138 49.0145 24.5317 49.0145C30.0992 49.0145 34.7967 50.7343 38.6244 54.1739C42.626 57.4415 44.6268 61.999 44.6268 67.8464C44.6268 74.3817 42.713 79.5411 38.8854 83.3246C35.0577 87.1082 30.2732 89 24.5317 89ZM86.1219 89C77.9447 89 71.7683 86.0763 67.5927 80.229C63.5911 74.2097 61.5902 65.8686 61.5902 55.2058C61.5902 42.9952 64.635 32.2464 70.7244 22.9594C76.8138 13.6725 86.1219 6.01933 98.6488 0L107 16.5101C99.1707 20.4657 93.2553 25.0232 89.2537 30.1826C85.426 35.1701 83.5122 41.5334 83.5122 49.2725C84.0341 49.1005 84.9041 49.0145 86.1219 49.0145C91.6894 49.0145 96.387 50.7343 100.215 54.1739C104.216 57.4415 106.217 61.999 106.217 67.8464C106.217 74.3817 104.303 79.5411 100.476 83.3246C96.648 87.1082 91.8634 89 86.1219 89Z" fill="#282C3F"/>
</svg>
