<svg width="16" height="16" viewBox="0 0 16 16" fill="none" xmlns="http://www.w3.org/2000/svg">
<path d="M4.85399 2.14604C4.80755 2.09948 4.75237 2.06253 4.69162 2.03733C4.63088 2.01212 4.56576 1.99915 4.49999 1.99915C4.43422 1.99915 4.3691 2.01212 4.30836 2.03733C4.24761 2.06253 4.19244 2.09948 4.14599 2.14604L1.14599 5.14604C1.0521 5.23993 0.999359 5.36726 0.999359 5.50004C0.999359 5.63282 1.0521 5.76015 1.14599 5.85404C1.23988 5.94793 1.36722 6.00067 1.49999 6.00067C1.63277 6.00067 1.7601 5.94793 1.85399 5.85404L3.99999 3.70704V13.5C3.99999 13.6326 4.05267 13.7598 4.14644 13.8536C4.24021 13.9474 4.36738 14 4.49999 14C4.6326 14 4.75978 13.9474 4.85354 13.8536C4.94731 13.7598 4.99999 13.6326 4.99999 13.5V3.70704L7.14599 5.85404C7.23988 5.94793 7.36722 6.00067 7.49999 6.00067C7.63277 6.00067 7.76011 5.94793 7.85399 5.85404C7.94788 5.76015 8.00062 5.63282 8.00062 5.50004C8.00062 5.36726 7.94788 5.23993 7.85399 5.14604L4.85399 2.14604ZM11.152 13.86C11.2453 13.9505 11.3701 14.001 11.5 14.001C11.6299 14.001 11.7547 13.9505 11.848 13.86L14.848 10.96C14.9435 10.8677 14.9984 10.7413 15.0006 10.6085C15.0029 10.4757 14.9523 10.3475 14.86 10.252C14.7677 10.1566 14.6413 10.1017 14.5085 10.0994C14.3757 10.0972 14.2475 10.1477 14.152 10.24L12 12.321V2.50104C12 2.36843 11.9473 2.24125 11.8535 2.14749C11.7598 2.05372 11.6326 2.00104 11.5 2.00104C11.3674 2.00104 11.2402 2.05372 11.1464 2.14749C11.0527 2.24125 11 2.36843 11 2.50104V12.321L8.84799 10.241C8.80097 10.1947 8.74525 10.1582 8.68404 10.1336C8.62283 10.1089 8.55735 10.0966 8.49137 10.0974C8.42539 10.0981 8.36021 10.112 8.2996 10.1381C8.23898 10.1641 8.18413 10.202 8.1382 10.2493C8.09227 10.2967 8.05618 10.3527 8.03199 10.4141C8.00781 10.4755 7.99602 10.5411 7.99731 10.6071C7.99859 10.673 8.01292 10.7381 8.03946 10.7985C8.06601 10.8589 8.10426 10.9135 8.15199 10.959L11.152 13.859V13.86Z" fill="#6D6E70"/>
</svg>
