<svg width="44" height="44" viewBox="0 0 44 44" fill="none" xmlns="http://www.w3.org/2000/svg">
<g clip-path="url(#clip0)">
<path d="M8.14102 5.07373H8.13077C6.56143 5.0967 5.28504 6.39274 5.28504 7.96284V12.0915H1.02387C0.671174 12.0915 0.385254 12.3774 0.385254 12.7301C0.385254 13.0828 0.671174 13.3687 1.02387 13.3687H5.28513V16.7264H1.02387C0.671174 16.7264 0.385254 17.0123 0.385254 17.365C0.385254 17.7177 0.671174 18.0036 1.02387 18.0036H5.28513V21.3612H1.02387C0.671174 21.3612 0.385254 21.6472 0.385254 21.9999C0.385254 22.3526 0.671174 22.6385 1.02387 22.6385H5.28513V25.9961H1.02387C0.671174 25.9961 0.385254 26.282 0.385254 26.6347C0.385254 26.9874 0.671174 27.2733 1.02387 27.2733H5.28513V30.6309H1.02387C0.671174 30.6309 0.385254 30.9169 0.385254 31.2696C0.385254 31.6222 0.671174 31.9082 1.02387 31.9082H5.28513V34.092C5.28513 34.4445 5.57122 34.7306 5.92374 34.7306C6.27627 34.7306 6.56236 34.4445 6.56236 34.092V7.96293C6.56236 7.08669 7.27419 6.36384 8.15043 6.3502C8.50296 6.34512 8.78481 6.05555 8.77888 5.70218C8.77371 5.35304 8.48931 5.07373 8.14102 5.07373Z" fill="white"/>
<path d="M35.1436 37.3848H8.17491C7.51671 37.3848 6.93089 36.9914 6.68141 36.3826C6.54769 36.0556 6.17558 35.8998 5.84865 36.0334C5.52163 36.1672 5.36587 36.5401 5.49951 36.8662C5.94568 37.957 6.99563 38.662 8.17491 38.662H12.1708V43.0552C12.1708 43.4079 12.4567 43.6938 12.8094 43.6938C13.1621 43.6938 13.448 43.4079 13.448 43.0552V38.662H16.8056V43.0552C16.8056 43.4079 17.0916 43.6938 17.4443 43.6938C17.797 43.6938 18.0829 43.4079 18.0829 43.0552V38.662H21.4404V43.0552C21.4404 43.4079 21.7264 43.6938 22.0791 43.6938C22.4318 43.6938 22.7177 43.4079 22.7177 43.0552V38.662H26.0752V43.0552C26.0752 43.4079 26.3612 43.6938 26.7139 43.6938C27.0666 43.6938 27.3525 43.4079 27.3525 43.0552V38.662H30.7101V43.0552C30.7101 43.4079 30.996 43.6938 31.3487 43.6938C31.7014 43.6938 31.9874 43.4079 31.9874 43.0552V38.662H35.1436C35.4961 38.662 35.7822 38.3759 35.7822 38.0234C35.7822 37.6701 35.4961 37.3848 35.1436 37.3848Z" fill="white"/>
<path d="M30.7408 11.1646H13.418C12.2923 11.1646 11.377 12.0799 11.377 13.2056V30.5293C11.377 31.655 12.2923 32.5703 13.418 32.5703H30.7409C31.8666 32.5703 32.7819 31.6549 32.7819 30.5293V13.2056C32.7819 12.0799 31.8665 11.1646 30.7408 11.1646ZM12.6541 13.2056C12.6541 12.7841 12.9964 12.4418 13.4179 12.4418H26.6279V19.1116C25.4734 19.3611 24.5614 20.2731 24.312 21.4277H19.6058V18.1528C20.8123 17.917 21.7252 16.8517 21.7252 15.577C21.7252 14.1303 20.5475 12.9527 19.1 12.9527C17.8253 12.9527 16.7602 13.8655 16.5242 15.0712H12.6541V13.2056ZM27.2667 20.3207C28.2289 20.3207 29.0114 21.104 29.0114 22.0663C29.0114 23.0285 28.2289 23.811 27.2667 23.811C26.2976 23.811 25.5211 23.0208 25.5211 22.0663C25.5212 21.11 26.2998 20.3207 27.2667 20.3207ZM19.1 16.9249C18.3615 16.9249 17.7521 16.3242 17.7521 15.577C17.7521 14.8345 18.3567 14.2299 19.1 14.2299C19.8434 14.2299 20.4479 14.8345 20.4479 15.577C20.4479 16.3268 19.8374 16.9249 19.1 16.9249ZM16.342 27.3626C15.9716 27.1548 15.7213 26.7572 15.7213 26.3033C15.7213 25.6332 16.2671 25.0882 16.9372 25.0882C17.6074 25.0882 18.1523 25.6332 18.1523 26.3033C18.1523 27.2319 17.1479 27.8182 16.342 27.3626ZM21.507 31.2931H17.2225V28.7795C18.4631 28.6381 19.4296 27.5814 19.4296 26.3033C19.4296 24.929 18.3116 23.811 16.9372 23.811C15.562 23.811 14.444 24.929 14.444 26.3033C14.444 27.3251 15.0622 28.2064 15.9452 28.5904V31.2931H13.418C12.9965 31.2931 12.6542 30.95 12.6542 30.5293V16.3484H16.5906C16.5961 16.3572 16.9393 17.6594 18.3285 18.0864V22.0663C18.3285 22.4188 18.6146 22.7049 18.9671 22.7049H21.507V31.2931ZM31.5046 30.5293C31.5046 30.95 31.1624 31.2931 30.7409 31.2931H22.7843V28.5313H31.5046V30.5293ZM31.5046 27.2541H22.7843V22.7049H24.312C24.6058 24.0656 25.8191 25.0883 27.2667 25.0883C28.9331 25.0883 30.2887 23.7327 30.2887 22.0663C30.2887 20.6187 29.266 19.4054 27.9053 19.1116C27.9053 19.1116 27.9052 19.1116 27.9051 19.1116V12.4418H30.7408C31.1623 12.4418 31.5046 12.7841 31.5046 13.2056V27.2541H31.5046Z" fill="white"/>
<path d="M43.1348 18.0037C43.4875 18.0037 43.7734 17.7178 43.7734 17.3651C43.7734 17.0124 43.4875 16.7265 43.1348 16.7265H38.8735V13.3688H43.1348C43.4875 13.3688 43.7734 13.0829 43.7734 12.7302C43.7734 12.3775 43.4875 12.0916 43.1348 12.0916H38.8735V7.96295C38.8735 6.3698 37.5776 5.07299 35.9836 5.07299H31.9877V0.944525C31.9877 0.591828 31.7018 0.305908 31.3491 0.305908C30.9964 0.305908 30.7105 0.591828 30.7105 0.944525V5.07291H27.3528V0.944525C27.3528 0.591828 27.0669 0.305908 26.7142 0.305908C26.3615 0.305908 26.0756 0.591828 26.0756 0.944525V5.07291H22.718V0.944525C22.718 0.591828 22.4321 0.305908 22.0794 0.305908C21.7267 0.305908 21.4408 0.591828 21.4408 0.944525V5.07291H18.0832V0.944525C18.0832 0.591828 17.7973 0.305908 17.4446 0.305908C17.0919 0.305908 16.806 0.591828 16.806 0.944525V5.07291H13.4483V0.944525C13.4483 0.591828 13.1624 0.305908 12.8097 0.305908C12.457 0.305908 12.1711 0.591828 12.1711 0.944525V5.07291H10.6957C10.3424 5.07291 10.0571 5.359 10.0571 5.71152C10.0571 6.06405 10.3424 6.35014 10.6957 6.35014C14.0411 6.35014 33.3062 6.35014 35.9836 6.35014C36.8734 6.35014 37.5963 7.07392 37.5963 7.96287V35.772C37.5963 36.2173 37.4192 36.6321 37.0965 36.9394C36.8411 37.183 36.8308 37.5874 37.0744 37.842C37.2004 37.974 37.3682 38.0404 37.5367 38.0404C37.6951 38.0404 37.8535 37.9817 37.9778 37.8641C38.5551 37.3132 38.8736 36.5699 38.8736 35.772V31.9082H43.1349C43.4876 31.9082 43.7735 31.6223 43.7735 31.2696C43.7735 30.9169 43.4876 30.631 43.1349 30.631H38.8736V27.2733H43.1349C43.4876 27.2733 43.7735 26.9874 43.7735 26.6347C43.7735 26.282 43.4876 25.9961 43.1349 25.9961H38.8736V22.6385H43.1349C43.4876 22.6385 43.7735 22.3526 43.7735 21.9999C43.7735 21.6472 43.4876 21.3613 43.1349 21.3613H38.8736V18.0037H43.1348Z" fill="white"/>
</g>
<defs>
<clipPath id="clip0">
<rect width="43.388" height="43.388" fill="white" transform="translate(0.385254 0.305908)"/>
</clipPath>
</defs>
</svg>
