<svg width="30" height="28" viewBox="0 0 30 28" fill="none" xmlns="http://www.w3.org/2000/svg">
<path d="M15.0162 0.375732C7.02698 0.375732 0.549072 6.52974 0.549072 14.1195C0.549072 21.7092 7.02698 27.8632 15.0162 27.8632C23.0054 27.8632 29.4833 21.7092 29.4833 14.1195C29.4833 6.52974 23.0054 0.375732 15.0162 0.375732ZM21.9688 10.7357C21.9785 10.8799 21.9785 11.0302 21.9785 11.1775C21.9785 15.681 18.3682 20.8687 11.7708 20.8687C9.73633 20.8687 7.85044 20.3072 6.26164 19.3409C6.55228 19.3716 6.82999 19.3838 7.12709 19.3838C8.8063 19.3838 10.3499 18.8439 11.5802 17.9297C10.0044 17.899 8.68036 16.9173 8.22826 15.5675C8.78047 15.6442 9.27777 15.6442 9.84613 15.5061C9.0347 15.3495 8.30536 14.9309 7.78203 14.3213C7.2587 13.7117 6.97365 12.9488 6.97531 12.1622V12.1193C7.45001 12.3739 8.00867 12.5304 8.59317 12.5518C8.10181 12.2407 7.69885 11.8193 7.42002 11.3248C7.14118 10.8303 6.99508 10.2781 6.99469 9.71719C6.99469 9.08215 7.16907 8.50234 7.4823 7.99922C8.38295 9.05251 9.50683 9.91397 10.7809 10.5276C12.0549 11.1412 13.4507 11.4933 14.8773 11.5609C14.3703 9.24475 16.1916 7.37032 18.3811 7.37032C19.4144 7.37032 20.3445 7.78141 21 8.44405C21.8106 8.29987 22.5856 8.01149 23.2766 7.62495C23.0086 8.41337 22.4467 9.07909 21.7008 9.49938C22.4241 9.42575 23.1216 9.23555 23.7675 8.96865C23.2799 9.6497 22.6695 10.2541 21.9688 10.7357Z" fill="white"/>
</svg>
