<svg width="42" height="35" viewBox="0 0 42 35" fill="none" xmlns="http://www.w3.org/2000/svg">
<path d="M37.5 5.625H31.125L29.6062 1.36875C29.5013 1.07751 29.309 0.825758 29.0557 0.647895C28.8023 0.470031 28.5002 0.374727 28.1906 0.375001H13.8094C13.1766 0.375001 12.6094 0.773438 12.3984 1.36875L10.875 5.625H4.5C2.42812 5.625 0.75 7.30313 0.75 9.375V30.75C0.75 32.8219 2.42812 34.5 4.5 34.5H37.5C39.5719 34.5 41.25 32.8219 41.25 30.75V9.375C41.25 7.30313 39.5719 5.625 37.5 5.625ZM37.875 30.75C37.875 30.9562 37.7062 31.125 37.5 31.125H4.5C4.29375 31.125 4.125 30.9562 4.125 30.75V9.375C4.125 9.16875 4.29375 9 4.5 9H13.2516L14.0531 6.75938L15.1266 3.75H26.8688L27.9422 6.75938L28.7438 9H37.5C37.7062 9 37.875 9.16875 37.875 9.375V30.75ZM21 12C16.8563 12 13.5 15.3562 13.5 19.5C13.5 23.6437 16.8563 27 21 27C25.1437 27 28.5 23.6437 28.5 19.5C28.5 15.3562 25.1437 12 21 12ZM21 24C18.5156 24 16.5 21.9844 16.5 19.5C16.5 17.0156 18.5156 15 21 15C23.4844 15 25.5 17.0156 25.5 19.5C25.5 21.9844 23.4844 24 21 24Z" fill="#282C3F"/>
</svg>
